<?xml version="1.0" encoding="utf-8"?>
<!DOCTYPE svg PUBLIC "-//W3C//DTD SVG 1.1//EN" "http://www.w3.org/Graphics/SVG/1.1/DTD/svg11.dtd">
<svg version="1.1" id="Ebene_1" xmlns="http://www.w3.org/2000/svg" xmlns:xlink="http://www.w3.org/1999/xlink" x="0px" y="0px"
	 width="315.134px" height="88.15px" viewBox="140.08 380.418 315.134 88.15" enable-background="new 140.08 380.418 315.134 88.15"
	 xml:space="preserve">
<title>logos</title>
<style type="text/css">
  path { fill: #2c3e50; }
  @media (prefers-color-scheme: dark) {
    path { fill: #ffffff; }
  }
</style>
<path d="M379.988,380.625c-3.113-0.493-6.072,1.525-6.746,4.604l-14.486,47.623l-15.873-52.346h-16.51l23.811,64.568
	c1.842,3.318,1.076,7.476-1.824,9.922c-2.383,1.864-4.684,1.864-9.645,1.825h-1.191v11.747h3.969c6.867,0,11.906-0.278,14.764-2.699
	c3.424-2.924,5.967-6.744,7.342-11.032l26.43-74.172h-10.039V380.625z M403.798,386.617c-4.648,3.81-7.283,9.549-7.143,15.557
	c-0.211,4.355,1.535,8.576,4.762,11.509l0,0c2.977,2.977,9.168,5.636,18.375,7.938l0,0c2.301,0.683,4.648,1.2,7.023,1.548
	c3.334,0.714,13.215,2.817,13.215,9.405c-0.031,2.951-1.697,5.642-4.326,6.984c-2.93,1.504-6.189,2.254-9.484,2.183
	c-4.186,0.154-8.324-0.922-11.904-3.095c-2.637-1.862-4.377-4.738-4.803-7.938h-14.484c-0.123,5.92,2.482,11.567,7.063,15.318
	c4.723,3.969,11.906,5.834,21.867,5.834s18.215-1.865,23.295-5.596c5.275-3.944,8.248-10.248,7.938-16.826
	c0.223-4.302-1.41-8.492-4.484-11.509c-5.559-3.806-11.84-6.427-18.453-7.699l-5.08-1.071c-10.953-2.302-15.875-5.199-15.875-9.406
	c-0.117-2.658,1.162-5.186,3.373-6.667c2.873-1.492,6.096-2.178,9.326-1.984c3.633-0.185,7.227,0.818,10.24,2.857h0.238l0.713,0.675
	c0.564,0.508,1.094,1.051,1.588,1.627c1.23,2.349,3.621,3.861,6.27,3.969h9.367c-0.613-5.438-3.281-10.437-7.461-13.969
	c-6.303-4.157-13.771-6.188-21.311-5.795c-7.072-0.306-14.047,1.731-19.844,5.795 M272.123,386.26
	c-4.65,3.825-7.284,9.576-7.144,15.596c-0.334,4.55,1.47,8.996,4.881,12.024l0,0c2.977,2.977,9.207,5.636,18.414,7.938l0,0
	c2.314,0.685,4.675,1.201,7.064,1.548c3.333,0.715,13.255,2.817,13.255,9.445c-0.016,2.966-1.686,5.675-4.326,7.024
	c-2.943,1.51-6.217,2.26-9.524,2.183c-4.251,0.184-8.463-0.894-12.104-3.096c-2.632-1.865-4.372-4.739-4.802-7.937h-14.524
	c-0.131,5.952,2.49,11.633,7.104,15.397c4.723,3.969,11.906,5.834,21.946,5.834s18.296-1.905,23.374-5.596
	c5.299-3.96,8.275-10.3,7.938-16.906c0.223-4.313-1.408-8.517-4.484-11.549c-5.582-3.82-11.891-6.455-18.533-7.738l-5.119-1.071
	c-10.993-2.342-15.874-5.238-15.874-9.445c-0.108-2.667,1.186-5.196,3.413-6.667c2.886-1.494,6.122-2.18,9.366-1.984
	c3.65-0.176,7.257,0.841,10.279,2.897h0.238l0.713,0.674c0.564,0.509,1.094,1.053,1.588,1.628c1.238,2.359,3.646,3.874,6.311,3.968
	h9.445c-0.697-5.342-3.375-10.228-7.5-13.691c-6.324-4.183-13.82-6.227-21.391-5.834c-7.075-0.285-14.048,1.765-19.843,5.834
	 M241.247,382.767c-4.999,1.119-9.748,3.15-14.009,5.993c-4.54,2.342-7.975,6.376-9.564,11.23
	c-2.559,5.596-3.782,11.709-3.572,17.858v34.844h16.072v-37.105c-0.449-5.94,1.795-11.769,6.112-15.874
	c4.979-3.733,11.134-5.551,17.342-5.119h3.969v-13.652c-5.626,0.028-11.231,0.694-16.708,1.984 M149.614,386.895
	c-2.725,2.057-4.86,4.794-6.191,7.937c-0.159,0.675-0.357,2.302,2.222,2.302h13.096c1.267-1.892,3.144-3.292,5.318-3.968
	c2.566-0.813,5.245-1.215,7.937-1.191c3.097-0.062,6.182,0.395,9.128,1.35c3.526,0.668,6.077,3.753,6.072,7.342
	c0,7.342-11.231,8.73-14.922,9.207l-8.294,1.111c-6.192,0.684-12.155,2.73-17.461,5.992c-4.537,3.449-6.944,9.017-6.35,14.684
	c-0.615,6.168,2.07,12.203,7.064,15.875c5.197,3.439,11.309,5.237,17.541,5.158c3.453,0,7.5-0.237,12.144-0.674
	c4.328-0.358,8.559-1.474,12.5-3.294c4.088-1.422,7.471-4.364,9.445-8.215c2.887-4.773,4.27-10.305,3.969-15.874v-25.121
	c0.154-5.593-2.792-10.814-7.66-13.573c-7.358-3.725-15.581-5.41-23.811-4.881c-7.631-0.495-15.21,1.557-21.549,5.834
	 M158.741,439.478L158.741,439.478c-2.188-2.052-3.4-4.938-3.333-7.937c-0.244-2.814,0.774-5.591,2.778-7.58
	c2.507-2,5.462-3.361,8.611-3.969l0,0l6.826-1.39c3.81-0.76,7.532-1.903,11.112-3.412l3.016-1.39v10.16
	c0.952,7.342-1.429,10.992-5.437,13.572c-4.028,3.452-9.227,5.228-14.525,4.961C164.514,442.578,161.312,441.511,158.741,439.478"/>
</svg>
