<svg width="200" height="200" viewBox="0 0 200 200" fill="none" xmlns="http://www.w3.org/2000/svg" role="img" aria-label="Awesome Lists">
  <defs>
    <linearGradient id="albg" x1="0" y1="0" x2="200" y2="200" gradientUnits="userSpaceOnUse">
      <stop offset="0" stop-color="#7c3aed"/>
      <stop offset="0.55" stop-color="#5b21b6"/>
      <stop offset="1" stop-color="#1e1b4b"/>
    </linearGradient>
    <linearGradient id="algold" x1="60" y1="36" x2="140" y2="120" gradientUnits="userSpaceOnUse">
      <stop offset="0" stop-color="#fde68a"/>
      <stop offset="0.5" stop-color="#fbbf24"/>
      <stop offset="1" stop-color="#f59e0b"/>
    </linearGradient>
    <filter id="alglow" x="-40%" y="-40%" width="180%" height="180%">
      <feGaussianBlur stdDeviation="4" result="b"/>
      <feMerge><feMergeNode in="b"/><feMergeNode in="SourceGraphic"/></feMerge>
    </filter>
  </defs>

  <!-- Backdrop -->
  <rect x="6" y="6" width="188" height="188" rx="34" fill="url(#albg)"/>
  <rect x="6.5" y="6.5" width="187" height="187" rx="33.5" fill="none" stroke="#a78bfa" stroke-opacity="0.45" stroke-width="1.5"/>

  <!-- Curated list rows with star bullets -->
  <g transform="translate(40,104)">
    <path d="M4 4 l4.7 2.6 -0.9 -5.3 3.8 -3.7 -5.3 -0.8 -2.1 -4.8 -2.1 4.8 -5.3 0.8 3.8 3.7 -0.9 5.3z" fill="#fcd34d"/>
    <rect x="22" y="-1" width="92" height="9" rx="4.5" fill="#ede9fe" fill-opacity="0.92"/>
  </g>
  <g transform="translate(40,130)">
    <path d="M4 4 l4.7 2.6 -0.9 -5.3 3.8 -3.7 -5.3 -0.8 -2.1 -4.8 -2.1 4.8 -5.3 0.8 3.8 3.7 -0.9 5.3z" fill="#fcd34d"/>
    <rect x="22" y="-1" width="78" height="9" rx="4.5" fill="#ddd6fe" fill-opacity="0.82"/>
  </g>
  <g transform="translate(40,156)">
    <path d="M4 4 l4.7 2.6 -0.9 -5.3 3.8 -3.7 -5.3 -0.8 -2.1 -4.8 -2.1 4.8 -5.3 0.8 3.8 3.7 -0.9 5.3z" fill="#fcd34d"/>
    <rect x="22" y="-1" width="64" height="9" rx="4.5" fill="#c4b5fd" fill-opacity="0.7"/>
  </g>

  <!-- Hero star -->
  <g filter="url(#alglow)" transform="translate(100,64)">
    <path d="M0 -42 L12.3 -13 L43 -11 L19.5 9 L26.5 39 L0 22.5 L-26.5 39 L-19.5 9 L-43 -11 L-12.3 -13 Z"
          fill="url(#algold)" stroke="#fffbeb" stroke-width="2" stroke-linejoin="round"/>
  </g>
</svg>
